<svg aria-hidden="true" style="position: absolute; width: 0; height: 0; overflow: hidden;" version="1.1" xmlns="http://www.w3.org/2000/svg" xmlns:xlink="http://www.w3.org/1999/xlink">
<defs>
<symbol id="icon-arrow-right" viewBox="0 0 32 32">
<path d="M19.414 27.414l10-10c0.781-0.781 0.781-2.047 0-2.828l-10-10c-0.781-0.781-2.047-0.781-2.828 0s-0.781 2.047 0 2.828l6.586 6.586h-19.172c-1.105 0-2 0.895-2 2s0.895 2 2 2h19.172l-6.586 6.586c-0.39 0.39-0.586 0.902-0.586 1.414s0.195 1.024 0.586 1.414c0.781 0.781 2.047 0.781 2.828 0z"></path>
</symbol>
<symbol id="icon-tags" viewBox="0 0 32 32">
<path d="M0 12.466v-7.751c0.093-1.217 0.962-2.051 2.066-2.066h7.751c1.028 0.017 1.986 0.389 2.826 0.896l12.148 13.343c0.732 0.941 0.77 2.111 0 2.902l-8.981 8.946c-0.907 0.783-2.179 0.854-2.902 0l-11.439-12.737c-0.804-0.995-1.456-2.305-1.468-3.534zM3.918 9.393c0.858 0.791 2.089 0.718 2.826 0 0.787-0.851 0.722-2.095 0-2.826-0.852-0.775-2.092-0.714-2.826 0-0.779 0.909-0.749 2.046 0 2.826zM13.505 2.683h2.971c1.245 0.077 2.719 0.568 3.517 1.468l11.439 12.771c0.773 0.893 0.742 2.174 0 2.937l-8.946 8.946c-1.24 0.703-2.376 0.654-3.142-0.239l8.776-8.776c0.79-0.874 0.706-2.135 0-2.902l-10.237-11.454c-1.212-1.512-3.82-2.683-4.378-2.751z"></path>
</symbol>
<symbol id="icon-info" viewBox="0 0 32 32">
<path d="M16 0c4.418 0 8.418 1.791 11.314 4.686s4.686 6.896 4.686 11.314-1.791 8.419-4.686 11.314c-2.896 2.895-6.896 4.686-11.314 4.686s-8.418-1.791-11.314-4.686c-2.895-2.896-4.686-6.896-4.686-11.314s1.791-8.418 4.686-11.314c2.896-2.895 6.896-4.686 11.314-4.686zM15.377 10.064c0-0.268 0.047-0.516 0.142-0.744 0.094-0.227 0.236-0.434 0.424-0.619 0.188-0.184 0.393-0.325 0.615-0.419 0.223-0.094 0.463-0.143 0.72-0.143s0.497 0.049 0.718 0.142c0.221 0.094 0.424 0.235 0.609 0.421 0.184 0.186 0.323 0.391 0.415 0.619 0.093 0.227 0.139 0.476 0.139 0.743 0 0.261-0.046 0.505-0.138 0.731s-0.23 0.434-0.416 0.623c-0.184 0.189-0.386 0.332-0.608 0.428s-0.461 0.143-0.72 0.143c-0.264 0-0.509-0.047-0.734-0.141-0.224-0.094-0.429-0.237-0.614-0.424-0.184-0.189-0.322-0.396-0.414-0.623s-0.138-0.471-0.138-0.736zM16.215 21.199c-0.069 0.248-0.209 0.735 0.206 0.735 0.090 0 0.204-0.051 0.341-0.15 0.148-0.107 0.318-0.269 0.508-0.484 0.193-0.219 0.395-0.478 0.604-0.776 0.208-0.297 0.427-0.639 0.656-1.019 0.023-0.041 0.077-0.054 0.118-0.030l0.773 0.574c0.038 0.027 0.046 0.078 0.022 0.116-0.356 0.617-0.715 1.157-1.079 1.617-0.366 0.463-0.737 0.848-1.113 1.152l-0.006 0.004c-0.376 0.305-0.762 0.534-1.157 0.688-1.099 0.426-2.835 0.356-3.332-0.927-0.314-0.81-0.056-1.731 0.191-2.523l1.248-3.777c0.080-0.286 0.181-0.601 0.217-0.896 0.061-0.492-0.156-0.81-0.691-0.81h-1.091c-0.047 0-0.086-0.039-0.086-0.086l0.005-0.030 0.286-1.043c0.010-0.039 0.046-0.065 0.084-0.064l5.57-0.174c0.047-0.002 0.088 0.036 0.090 0.083l-0.004 0.027-2.36 7.794zM26.109 5.891c-2.587-2.587-6.161-4.188-10.109-4.188s-7.522 1.601-10.109 4.188c-2.587 2.587-4.188 6.161-4.188 10.109s1.601 7.522 4.188 10.109c2.587 2.587 6.161 4.188 10.109 4.188s7.522-1.601 10.109-4.188c2.587-2.587 4.188-6.161 4.188-10.109s-1.601-7.522-4.188-10.109z"></path>
</symbol>
<symbol id="icon-photos" viewBox="0 0 32 32">
<path d="M1.259 10.357h22.353c0.001 0 0.002 0 0.004 0 0.344 0 0.656 0.14 0.881 0.367l0 0c0.226 0.227 0.366 0.539 0.367 0.884v15.961c0 0.001 0 0.002 0 0.003 0 0.344-0.14 0.655-0.367 0.879l-0 0c-0.019 0.021-0.040 0.040-0.064 0.056l-0.001 0.001c-0.214 0.192-0.498 0.31-0.81 0.31-0.006 0-0.012-0-0.018-0h-22.352c0 0 0 0 0 0-0.69 0-1.25-0.559-1.251-1.249v-15.961c0-0.001 0-0.002 0-0.004 0-0.344 0.14-0.656 0.367-0.881l0-0c0.227-0.226 0.539-0.366 0.884-0.367h0zM8.364 3.252h22.353c0.001 0 0.002 0 0.004 0 0.344 0 0.656 0.14 0.881 0.367l0 0c0.226 0.227 0.366 0.539 0.367 0.884v15.961c0 0.001 0 0.002 0 0.003 0 0.344-0.14 0.655-0.367 0.879l-0 0c-0.019 0.022-0.040 0.041-0.064 0.057l-0.001 0.001c-0.216 0.198-0.504 0.32-0.822 0.32-0.006 0-0.011-0-0.017-0h-1.399v-1.504h1.173v-15.482h-21.872v1.093h-1.496v-1.327c0-0.001 0-0.002 0-0.004 0-0.344 0.14-0.656 0.367-0.881l0-0c0.227-0.226 0.539-0.366 0.884-0.367h0zM4.813 6.806h22.353c0.001 0 0.002 0 0.003 0 0.344 0 0.655 0.14 0.879 0.367l0 0c0.226 0.226 0.366 0.537 0.367 0.882v15.961c0 0.001 0 0.002 0 0.004 0 0.344-0.14 0.656-0.367 0.881l-0 0c-0.019 0.021-0.041 0.040-0.064 0.056l-0.001 0.001c-0.214 0.192-0.498 0.31-0.81 0.31-0.006 0-0.012-0-0.018-0h-1.399v-1.493h1.173v-15.482h-21.882v1.093h-1.496v-1.329c0.001-0.69 0.561-1.249 1.251-1.249 0 0 0 0 0 0v0zM6.421 14.699c0.001 0 0.002 0 0.003 0 0.991 0 1.795 0.804 1.795 1.795s-0.804 1.795-1.795 1.795c-0.991 0-1.795-0.804-1.795-1.795 0-0.001 0-0.002 0-0.003v0c0-0.99 0.803-1.793 1.793-1.793v0zM13.966 22.397l3.593-6.213 3.811 9.642h-17.787v-1.194l1.493-0.075 1.496-3.663 0.747 2.617h2.243l1.943-5.008 2.466 3.887zM23.378 11.837h-21.882v15.487h21.882v-15.487z"></path>
</symbol>
<symbol id="icon-heart" viewBox="0 0 32 32">
<path d="M21.76 20.48c-1.536 1.694-5.76 5.76-5.76 5.76s-4.224-4.066-5.76-5.76c-3.584-3.953-4.48-5.496-4.48-8.32s2.048-5.12 5.12-5.12c2.56 0 4.096 1.694 5.12 3.388 1.024-1.694 2.56-3.388 5.12-3.388 3.072 0 5.12 2.296 5.12 5.12s-0.896 4.367-4.48 8.32z"></path>
</symbol>
<symbol id="icon-chain" viewBox="0 0 32 32">
<path d="M30.647 5.76l-4.092-4.049c-1.811-1.783-4.752-1.795-6.567-0.020l-4.54 4.429c-1.818 1.774-1.826 4.664-0.020 6.446l2.595-2.492c-0.263-0.794 0.061-1.703 0.703-2.332l2.889-2.817c0.915-0.888 2.383-0.884 3.286 0.010l2.457 2.428c0.903 0.894 0.899 2.334-0.010 3.224l-2.889 2.819c-0.611 0.596-1.614 0.923-2.393 0.713l-2.542 2.494c1.809 1.787 4.748 1.795 6.567 0.020l4.535-4.425c1.823-1.777 1.829-4.664 0.020-6.449z"></path>
<path d="M14.023 21.969c0.216 0.776-0.129 1.779-0.755 2.389l-2.698 2.636c-0.925 0.903-2.422 0.898-3.343-0.012l-2.507-2.469c-0.919-0.909-0.913-2.387 0.012-3.286l2.7-2.636c0.658-0.639 1.603-0.964 2.428-0.691l2.603-2.579c-1.842-1.817-4.84-1.826-6.691-0.020l-4.378 4.275c-1.852 1.809-1.861 4.75-0.020 6.571l4.168 4.121c1.84 1.815 4.836 1.824 6.691 0.018l4.378-4.275c1.85-1.811 1.858-4.75 0.020-6.569l-2.609 2.528z"></path>
<path d="M11.177 20.793c0.613 0.619 1.617 0.625 2.242 0.008l7.48-7.441c0.623-0.619 0.627-1.621 0.008-2.242-0.615-0.617-1.616-0.621-2.238-0.006l-7.482 7.439c-0.622 0.617-0.626 1.619-0.010 2.242z"></path>
</symbol>
<symbol id="icon-search" viewBox="0 0 32 32">
<path d="M30.498 28.979l-6.55-6.549c-0.319-0.32-0.744-0.496-1.196-0.496-0.245 0-0.481 0.053-0.698 0.152l-1.682-1.682c2.375-2.129 3.872-5.218 3.872-8.651 0-6.407-5.212-11.619-11.619-11.619s-11.619 5.212-11.619 11.619c0 6.407 5.212 11.619 11.619 11.619 2.597 0 4.997-0.856 6.934-2.301l1.722 1.722c-0.143 0.251-0.22 0.536-0.22 0.833 0 0.452 0.176 0.877 0.495 1.196l6.549 6.55c0.32 0.319 0.744 0.495 1.196 0.495s0.877-0.176 1.196-0.496c0.32-0.32 0.495-0.744 0.495-1.196s-0.176-0.877-0.495-1.196zM2.107 11.752c0-5.8 4.718-10.518 10.518-10.518s10.518 4.718 10.518 10.518c0 5.8-4.718 10.518-10.518 10.518s-10.518-4.718-10.518-10.518zM29.719 30.592c-0.111 0.112-0.26 0.173-0.418 0.173s-0.306-0.061-0.418-0.173l-6.549-6.55c-0.111-0.111-0.173-0.26-0.173-0.418s0.061-0.306 0.173-0.418c0.111-0.112 0.26-0.173 0.417-0.173s0.306 0.061 0.418 0.173l6.55 6.549c0.112 0.112 0.173 0.26 0.173 0.418s-0.061 0.306-0.173 0.418z"></path>
<path d="M13.048 3.327c2.581 0 7.606 2.82 7.606 7.989 0 0.304 0.246 0.551 0.551 0.551s0.551-0.246 0.551-0.551c0-2.593-1.147-4.998-3.229-6.771-1.654-1.409-3.804-2.319-5.477-2.319-0.304 0-0.551 0.246-0.551 0.551s0.246 0.551 0.55 0.551z"></path>
</symbol>
<symbol id="icon-twitter" viewBox="0 0 32 32">
<path d="M30.304 7.136c-0.784 1.168-1.776 2.208-2.928 3.040 0.016 0.24 0.016 0.496 0.016 0.752 0 7.76-5.904 16.704-16.688 16.704-3.312 0-6.4-0.976-9.008-2.64 0.464 0.048 0.928 0.080 1.408 0.080 2.752 0 5.28-0.944 7.28-2.512-2.56-0.048-4.72-1.744-5.472-4.080 0.352 0.064 0.72 0.112 1.104 0.112 0.528 0 1.056-0.080 1.536-0.208-2.672-0.544-4.704-2.912-4.704-5.76v-0.064c0.8 0.432 1.696 0.704 2.656 0.736-1.568-1.056-2.608-2.848-2.608-4.896 0-1.072 0.288-2.080 0.8-2.944 2.896 3.552 7.216 5.888 12.096 6.128-0.096-0.432-0.16-0.88-0.16-1.344 0-3.232 2.64-5.856 5.872-5.856 1.696 0 3.216 0.704 4.288 1.856 1.328-0.272 2.592-0.752 3.728-1.424-0.448 1.36-1.376 2.512-2.592 3.232 1.2-0.128 2.32-0.448 3.376-0.912z"></path>
</symbol>
<symbol id="icon-flickr" viewBox="0 0 32 32">
<path d="M9.44 22.102c-0.001 0-0.001 0-0.002 0-2.889 0-5.231-2.342-5.231-5.231s2.342-5.231 5.231-5.231c2.889 0 5.231 2.342 5.231 5.231 0 0.001 0 0.001 0 0.002v-0c-0.001 2.888-2.342 5.229-5.229 5.229h-0zM27.789 16.872c0-2.888-2.341-5.229-5.229-5.229s-5.229 2.341-5.229 5.229c0 2.888 2.34 5.229 5.228 5.229h0c2.889 0 5.23-2.341 5.231-5.229v-0z"></path>
</symbol>
<symbol id="icon-facebook" viewBox="0 0 32 32">
<path d="M13.536 28.8h4.688v-11.68h3.92l0.592-4.544h-4.512v-2.912c0-1.312 0.368-2.208 2.256-2.208h2.416v-4.080c-0.416-0.048-1.84-0.176-3.504-0.176-3.488 0-5.856 2.128-5.856 6.016v3.36h-3.936v4.544h3.936v11.68z"></path>
</symbol>
<symbol id="icon-linkedin" viewBox="0 0 32 32">
<path d="M24.45 24.45h-3.556v-5.57c0-1.328-0.024-3.038-1.85-3.038-1.852 0-2.136 1.448-2.136 2.94v5.668h-3.556v-11.454h3.414v1.566h0.048c0.696-1.188 1.992-1.9 3.368-1.85 3.604 0 4.27 2.37 4.27 5.456l-0.002 6.28zM9.34 11.43c-1.137-0.006-2.057-0.925-2.064-2.061v-0.001c0-1.132 0.932-2.064 2.064-2.064s2.062 0.932 2.064 2.064c0 1.132-0.932 2.064-2.064 2.064zM11.118 24.45h-3.56v-11.454h3.56v11.454zM26.22 4h-20.45c-0.003-0-0.007-0-0.010-0-0.962 0-1.744 0.772-1.76 1.731l-0 0.001v20.536c0.016 0.96 0.798 1.732 1.76 1.732 0.004 0 0.007 0 0.011-0h20.451c0.004 0 0.009 0 0.014 0 0.963 0 1.746-0.772 1.764-1.73l0-0.002v-20.538c-0.018-0.958-0.799-1.728-1.76-1.728-0.006 0-0.013 0-0.019 0h0.001z"></path>
</symbol>
</defs>
</svg>
